<!-- From https://www.svgrepo.com/svg/452184/csharp -->
<svg version="1.2" xmlns="http://www.w3.org/2000/svg" viewBox="0 0 800 800" width="256" height="256">
  <style>
  	.s0 { fill: currentColor } 
  </style>
  <path id="Layer 1 copy 2" fill-rule="evenodd" class="s0" d="m743 567.99c0 23.57-12.39 45.42-32.63 57.51l-276 164.96c-21.17 12.65-47.57 12.65-68.74 0l-276-164.96c-20.24-12.09-32.63-33.94-32.63-57.51v-334.98c0-23.57 12.39-45.42 32.63-57.51l276-164.96c21.17-12.65 47.57-12.65 68.74 0l276 164.96c20.24 12.09 32.63 33.94 32.63 57.51zm-281.71 60.92c19.99-5.38 39.2-13.33 57.13-23.68 17.93-10.34 34.43-22.98 49.08-37.6 14.66-14.61 27.35-31.08 37.74-48.98l-102.56-59.35c-5.2 8.96-11.54 17.21-18.87 24.52-7.33 7.32-15.59 13.65-24.56 18.83-8.97 5.18-18.58 9.17-28.58 11.86-10 2.7-20.31 4.07-30.67 4.1-15.56-0.02-30.96-3.1-45.33-9.07-14.37-5.96-27.43-14.7-38.43-25.7-11-11.01-19.73-24.07-25.69-38.44-5.96-14.37-9.03-29.78-9.05-45.34 0.02-15.55 3.1-30.95 9.06-45.32 5.97-14.37 14.7-27.42 25.69-38.42 11-11 24.06-19.73 38.43-25.69 14.36-5.96 29.76-9.04 45.32-9.06 10.36 0.02 20.67 1.39 30.67 4.08 10 2.7 19.61 6.68 28.58 11.86 8.97 5.18 17.22 11.51 24.55 18.82 7.33 7.32 13.68 15.56 18.88 24.52l102.56-59.37c-42.26-73.04-120.92-118.43-205.24-118.43-130.7 0-237.02 106.32-237.02 237.01 0 130.7 106.32 237.02 237.02 237.02 20.7-0.06 41.3-2.8 61.29-8.17zm195.86-314.62v28.49h-57.15v-28.49h-28.57v28.49h-28.57v28.65h28.57v56.99h-28.57v28.73h28.57v28.57h28.57v-28.57h57.15v28.57h28.56v-28.57h28.58v-28.58h-28.58v-57.14h28.58v-28.65h-28.58v-28.49zm-57.14 114.13v-56.99h57.14v57.14z"/>
</svg>